<svg width="32" height="32" viewBox="0 0 32 32" fill="none" xmlns="http://www.w3.org/2000/svg">
<g id="User Interface / Chat Text">
<path id="Shape" d="M4 23.0329V12.5333C4 9.54639 4 8.05291 4.5813 6.91205C5.09262 5.90852 5.90852 5.09262 6.91205 4.5813C8.05291 4 9.54639 4 12.5333 4H19.4667C22.4536 4 23.9471 4 25.0879 4.5813C26.0915 5.09262 26.9074 5.90852 27.4187 6.91205C28 8.05291 28 9.54639 28 12.5333V14.1333C28 17.1203 28 18.6138 27.4187 19.7546C26.9074 20.7581 26.0915 21.574 25.0879 22.0854C23.9471 22.6667 22.4536 22.6667 19.4667 22.6667H13.8122C13.1439 22.6667 12.8098 22.6667 12.4962 22.7437C12.2182 22.812 11.9531 22.9247 11.7109 23.0773C11.4378 23.2494 11.2057 23.4899 10.7417 23.9708L9.50288 25.2548C7.7828 27.0376 6.92275 27.929 6.18189 27.9967C5.5393 28.0554 4.90788 27.8004 4.48619 27.312C4 26.7489 4 25.5103 4 23.0329Z" fill="#90ECF4"/>
<g id="Shape_2">
<path d="M10.6663 9.33325C9.92996 9.33325 9.33301 9.93021 9.33301 10.6666C9.33301 11.403 9.92996 11.9999 10.6663 11.9999H21.333C22.0694 11.9999 22.6663 11.403 22.6663 10.6666C22.6663 9.93021 22.0694 9.33325 21.333 9.33325H10.6663Z" fill="#444BD3"/>
<path d="M10.6663 14.6666C9.92996 14.6666 9.33301 15.2635 9.33301 15.9999C9.33301 16.7363 9.92996 17.3333 10.6663 17.3333H14.6663C15.4027 17.3333 15.9997 16.7363 15.9997 15.9999C15.9997 15.2635 15.4027 14.6666 14.6663 14.6666H10.6663Z" fill="#444BD3"/>
</g>
</g>
</svg>
