<svg width="32" height="32" viewBox="0 0 32 32" fill="none" xmlns="http://www.w3.org/2000/svg">
<g id="User Interface / Delivery Truck">
<path id="Shape" d="M5.33366 5.33325C3.8609 5.33325 2.66699 6.52716 2.66699 7.99992V21.3333C2.66699 22.806 3.8609 23.9999 5.33366 23.9999H18.667V7.99992C18.667 6.52716 17.4731 5.33325 16.0003 5.33325H5.33366Z" fill="#90ECF4"/>
<path id="Shape_2" d="M22.1504 9.33325H18.667V23.9999H26.667C28.1398 23.9999 29.3337 22.806 29.3337 21.3333V16.118C29.3337 15.368 29.0179 14.6527 28.4637 14.1474L23.9471 10.0294C23.4559 9.58151 22.8151 9.33325 22.1504 9.33325Z" fill="#444BD3"/>
<path id="Shape_3" fill-rule="evenodd" clip-rule="evenodd" d="M9.33366 26.6666C10.8064 26.6666 12.0003 25.4727 12.0003 23.9999C12.0003 22.5272 10.8064 21.3333 9.33366 21.3333C7.8609 21.3333 6.66699 22.5272 6.66699 23.9999C6.66699 25.4727 7.8609 26.6666 9.33366 26.6666ZM25.8859 25.8855C26.386 25.3854 26.667 24.7072 26.667 23.9999H24.0003L21.3337 23.9999C21.3337 24.7072 21.6146 25.3854 22.1147 25.8855C22.6148 26.3856 23.2931 26.6666 24.0003 26.6666C24.7076 26.6666 25.3858 26.3856 25.8859 25.8855Z" fill="#444BD3"/>
</g>
</svg>
